<svg width="40" height="40" viewBox="0 0 87 85" fill="none" xmlns="http://www.w3.org/2000/svg" class="mx-auto">
<g opacity="0.34832">
<path d="M53.9575 2.52552C53.9575 3.92039 52.8266 5.05121 51.4319 5.05121C50.037 5.05121 48.9062 3.92039 48.9062 2.52552C48.9062 1.13074 50.037 0 51.4319 0C52.8266 0 53.9575 1.13074 53.9575 2.52552Z" fill="#41AE80"></path>
</g>
<g opacity="0.722281">
<path d="M34.0756 8.56292L32.5757 9.42887C32.3041 9.58568 31.9569 9.49259 31.8001 9.22109L29.0918 4.53008C28.935 4.25859 29.0281 3.91138 29.2996 3.75466L30.7995 2.88863C31.071 2.73191 31.4182 2.82491 31.575 3.09641L34.2833 7.78742C34.4401 8.05899 34.3471 8.40612 34.0756 8.56292Z" fill="#4683F5"></path>
</g>
<g opacity="0.722281">
<path d="M8.79098 18.6797L9.12834 18.7941C9.51088 18.9238 9.93281 18.857 10.2566 18.6154L10.5422 18.4023C11.3575 17.7939 12.5167 18.3844 12.5037 19.4017L12.4991 19.7579C12.4939 20.1619 12.6878 20.5425 13.0176 20.7758L13.3086 20.9815C14.1392 21.5689 13.9356 22.8537 12.9642 23.1558L12.6239 23.2615C12.2381 23.3814 11.9362 23.6835 11.8163 24.0693L11.7105 24.4096C11.4085 25.381 10.1236 25.5845 9.5362 24.7539L9.33041 24.463C9.09715 24.1332 8.71651 23.9392 8.31262 23.9444L7.95632 23.9489C6.93911 23.9619 6.34854 22.8029 6.95698 21.9875L7.17014 21.7019C7.41176 21.3782 7.47853 20.9563 7.34879 20.5737L7.23435 20.2363C6.90766 19.2728 7.82748 18.353 8.79098 18.6797Z" fill="#4683F5"></path>
</g>
<g opacity="0.722281">
<path d="M6.4073 36.5686L6.78611 38.2587C6.85471 38.5646 6.66232 38.8683 6.35632 38.9368L1.07086 40.1216C0.764943 40.1901 0.461344 39.9978 0.392664 39.6918L0.0138479 38.0017C-0.0546665 37.6958 0.13772 37.3922 0.443636 37.3237L5.72918 36.1388C6.0351 36.0703 6.3387 36.2627 6.4073 36.5686Z" fill="#50D05C"></path>
</g>
<g opacity="0.722281">
<path d="M11.7854 58.1583C11.7854 59.5531 10.6547 60.6839 9.2599 60.6839C7.86503 60.6839 6.73438 59.5531 6.73438 58.1583C6.73438 56.7636 7.86503 55.6328 9.2599 55.6328C10.6547 55.6328 11.7854 56.7636 11.7854 58.1583Z" fill="#F82681"></path>
</g>
<g opacity="0.722281">
<path d="M8.79098 70.6172L9.12834 70.7316C9.51088 70.8613 9.93281 70.7945 10.2566 70.5529L10.5422 70.3397C11.3575 69.7314 12.5167 70.3219 12.5037 71.3392L12.4991 71.6955C12.4939 72.0994 12.6878 72.4801 13.0176 72.7133L13.3086 72.919C14.1392 73.5065 13.9356 74.7913 12.9642 75.0933L12.6239 75.1991C12.2381 75.319 11.9362 75.6211 11.8163 76.0068L11.7105 76.347C11.4085 77.3185 10.1236 77.522 9.5362 76.6914L9.33041 76.4005C9.09715 76.0706 8.71651 75.8768 8.31262 75.8819L7.95632 75.8865C6.93911 75.8995 6.34854 74.7404 6.95698 73.9251L7.17014 73.6394C7.41176 73.3157 7.47853 72.8938 7.34879 72.5112L7.23435 72.1738C6.90766 71.2103 7.82748 70.2905 8.79098 70.6172Z" fill="#FFBC32"></path>
</g>
<g opacity="0.722281">
<path d="M73.8008 16.2781C73.0355 15.2806 73.2724 13.7947 74.3258 12.9864C75.3792 12.1782 76.8759 12.3338 77.6413 13.3313C77.6427 13.3332 77.6441 13.3351 77.6456 13.337" stroke="#F82681" stroke-width="1.65494" stroke-linecap="round" stroke-linejoin="round"></path>
</g>
<g opacity="0.722281">
<path d="M80.6113 30.0312L80.9486 30.1457C81.3311 30.2754 81.7532 30.2085 82.0769 29.9669L82.3625 29.7539C83.1779 29.1454 84.3369 29.736 84.3239 30.7533L84.3194 31.1095C84.3143 31.5135 84.5082 31.8941 84.838 32.1274L85.1289 32.3331C85.9595 32.9205 85.756 34.2053 84.7846 34.5073L84.4442 34.6131C84.0584 34.733 83.7565 35.0351 83.6366 35.4209L83.5307 35.7611C83.2288 36.7326 81.9439 36.936 81.3566 36.1054L81.1508 35.8146C80.9175 35.4847 80.5369 35.2908 80.133 35.296L79.7767 35.3006C78.7595 35.3135 78.1688 34.1544 78.7773 33.3391L78.9904 33.0536C79.232 32.7298 79.2989 32.3078 79.1691 31.9252L79.0546 31.5879C78.7279 30.6244 79.6477 29.7045 80.6113 30.0312Z" fill="#FFBB31"></path>
</g>
<g opacity="0.722281">
<path d="M82.9741 59.9688C84.6914 60.1949 85.9081 61.8734 85.6692 63.687C85.4304 65.5006 83.8208 66.807 82.1035 66.5807C82.1002 66.5803 82.097 66.5799 82.0938 66.5795" stroke="#F82681" stroke-width="1.24121" stroke-linecap="round" stroke-linejoin="round"></path>
</g>
<g opacity="0.722281">
<path d="M77.5599 81.2739L76.0599 82.1399C75.7885 82.2966 75.4412 82.2036 75.2845 81.9321L72.5761 77.2412C72.4194 76.9695 72.5124 76.6224 72.7839 76.4657L74.2839 75.5996C74.5554 75.4428 74.9026 75.5358 75.0593 75.8074L77.7677 80.4984C77.9244 80.7699 77.8314 81.1171 77.5599 81.2739Z" fill="#4683F5"></path>
</g>
<g opacity="0.722281">
<path d="M28.4002 84.006C27.3458 82.6317 27.6722 80.5846 29.1235 79.471C30.5748 78.3574 32.6367 78.572 33.6911 79.9462L33.6972 79.9539" stroke="#41AE80" stroke-width="1.65494" stroke-linecap="round" stroke-linejoin="round"></path>
</g>
<path d="M75.1586 40.2198C75.1586 56.3963 62.0449 69.5101 45.8684 69.5101C29.6919 69.5101 16.5781 56.3963 16.5781 40.2198C16.5781 24.0433 29.6919 10.9297 45.8684 10.9297C62.0449 10.9297 75.1586 24.0433 75.1586 40.2198Z" fill="#12B76A"></path>
<path d="M32.9375 40.2643L41.5242 48.8511L58.7972 31.5781" stroke="white" stroke-width="4.647" stroke-linecap="round" stroke-linejoin="round"></path>
</svg>